<svg width="45" height="35" viewBox="0 0 50 40" fill="none" xmlns="http://www.w3.org/2000/svg">
<path d="M13.6719 30.105C12.9062 31.342 12.5 32.7568 12.5 34.2102C11.7188 34.4808 10.875 34.6354 10 34.6354C5.85938 34.6354 2.5 31.3111 2.5 27.2136V4.94792C1.11719 4.94792 0 3.84237 0 2.47396C0 1.10555 1.11719 0 2.5 0H7.5H12.5H17.5C18.8828 0 20 1.10555 20 2.47396C20 3.84237 18.8828 4.94792 17.5 4.94792V23.9588L13.6719 30.1127V30.105ZM7.5 4.94792V12.3698H12.5V4.94792H7.5ZM27.5 0H37.5H40C41.3828 0 42.5 1.10555 42.5 2.47396C42.5 3.84237 41.3828 4.94792 40 4.94792V16.6142L49.1953 31.4038C49.7188 32.2465 50 33.2206 50 34.218C50 37.179 47.5703 39.5834 44.5781 39.5834H20.4219C17.4297 39.5834 15 37.179 15 34.218C15 33.2284 15.2813 32.2543 15.8047 31.4038L25 16.6142V4.94792C23.6172 4.94792 22.5 3.84237 22.5 2.47396C22.5 1.10555 23.6172 0 25 0H27.5ZM30 4.94792V17.3177C30 17.7739 29.875 18.2223 29.6328 18.6165L25.8203 24.7396H39.1797L35.3672 18.6165C35.125 18.23 35 17.7816 35 17.3177V4.94792H30Z" fill="url(#paint0_linear_5_8)"/>
<defs>
<linearGradient id="paint0_linear_5_8" x1="25" y1="0" x2="25" y2="78.3288" gradientUnits="userSpaceOnUse">
<stop stop-color="#3FDC87"/>
<stop offset="1" stop-color="#227648"/>
</linearGradient>
</defs>
</svg>
